<svg fill="none" height="24" viewBox="0 0 24 24" width="24" xmlns="http://www.w3.org/2000/svg"><path clip-rule="evenodd" d="m16 5v-1c0-1.10457-.8954-2-2-2h-4c-1.10457 0-2 .89543-2 2v1h-5.5c-.27614 0-.5.22386-.5.5s.22386.5.5.5h1.55882l.83044 14.1174c.06219 1.0572.9376 1.8826 1.99655 1.8826h10.22839c1.0589 0 1.9344-.8254 1.9965-1.8826l.8305-14.1174h1.5588c.2761 0 .5-.22386.5-.5s-.2239-.5-.5-.5zm-2-2h-4c-.55228 0-1 .44772-1 1v1h6v-1c0-.55228-.4477-1-1-1zm-3.5 7.5c0-.2761-.2239-.5-.5-.5-.27614 0-.5.2239-.5.5v6c0 .2761.22386.5.5.5.2761 0 .5-.2239.5-.5zm3.5-.5c.2761 0 .5.2239.5.5v6c0 .2761-.2239.5-.5.5s-.5-.2239-.5-.5v-6c0-.2761.2239-.5.5-.5z" fill="#000" fill-rule="evenodd"/></svg>