<svg fill="none" height="24" viewBox="0 0 24 24" width="24" xmlns="http://www.w3.org/2000/svg"><g fill="#000"><path clip-rule="evenodd" d="m7 5v-1c0-1.65685 1.34315-3 3-3h4c1.6569 0 3 1.34315 3 3v1h3c1.1046 0 2 .89543 2 2v1.5l-3.6604 1.37266c-.2246.08421-.4624.12734-.7023.12734h-11.27463c-.23982 0-.47769-.04313-.70225-.12734l-3.66042-1.37266v-1.5c0-1.10457.89543-2 2-2zm1-1c0-1.10457.89543-2 2-2h4c1.1046 0 2 .89543 2 2v1h-8z" fill-rule="evenodd"/><path d="m22 9.568-3.3093 1.241c-.3368.1263-.6936.191-1.0534.191h-.6373v1.5c0 .2761-.2239.5-.5.5s-.5-.2239-.5-.5v-1.5h-8v1.5c0 .2761-.22386.5-.5.5s-.5-.2239-.5-.5v-1.5h-.63733c-.35974 0-.71654-.0647-1.05337-.191l-3.3093-1.241v9.432c0 1.1046.89543 2 2 2h16c1.1046 0 2-.8954 2-2z"/></g></svg>