<svg fill="none" height="24" viewBox="0 0 24 24" width="24" xmlns="http://www.w3.org/2000/svg"><path clip-rule="evenodd" d="m9.0122 4.57656.48771-3.57656h4.99999l.4877 3.57655c.7036.28344 1.3576.66399 1.9455 1.12507l3.3431-1.36668 2.5 4.33012-2.8546 2.21144c.0516.3671.0783.7422.0783 1.1235s-.0267.7564-.0783 1.1235l2.8546 2.2114-2.5 4.3302-3.3431-1.3667c-.5879.4611-1.2419.8416-1.9455 1.125l-.4877 3.5766h-4.99999l-.48771-3.5766c-.70357-.2834-1.35758-.6639-1.94543-1.125l-3.34314 1.3667-2.5-4.3302 2.85456-2.2114c-.0516-.3671-.07827-.7422-.07827-1.1235s.02667-.7564.07827-1.1235l-2.85456-2.21144 2.5-4.33012 3.34314 1.36668c.58785-.46107 1.24186-.84163 1.94543-1.12506zm6.4877 7.42344c0 1.933-1.567 3.5-3.5 3.5s-3.49999-1.567-3.49999-3.5 1.56699-3.5 3.49999-3.5 3.5 1.567 3.5 3.5z" fill="#000" fill-rule="evenodd"/></svg>