<svg fill="none" height="24" viewBox="0 0 24 24" width="24" xmlns="http://www.w3.org/2000/svg"><g fill="#000"><path d="m12 4c0 .55228-.4477 1-1 1h-6v14h6c.5523 0 1 .4477 1 1s-.4477 1-1 1h-6c-1.10457 0-2-.8954-2-2v-14c0-1.10457.89543-2 2-2h6c.5523 0 1 .44772 1 1z"/><path d="m15.0001 15.5858 2.5857-2.5857h-8.58575c-.55229 0-1-.4477-1-1s.44772-1 1-1h8.58575l-2.5858-2.58582c-.3905-.39053-.3905-1.02369 0-1.41422.3905-.39052 1.0237-.39052 1.4142 0l4.293 4.29294c.1875.1875.2928.4419.2928.7071s-.1053.5196-.2928.7071l-4.2929 4.2929c-.3905.3905-1.0237.3905-1.4142 0-.3905-.3906-.3905-1.0237 0-1.4143z"/></g></svg>